<svg xmlns="http://www.w3.org/2000/svg" width="114" height="45" viewBox="0 0 114 45"><g><g><path fill="#c80000" d="M27.008 14.5l.244.034c.835.127 3.692.64 6.797 2.078 5.176 2.395 5.365 5.233 5.309 6.701-.1 2.669-2.856 4.613-5.358 5.525l-.087.032c-2.523.9-6.473 1.494-6.473 1.494 1.922-1.981 3.163-4.743 3.163-7.725 0-3.225-1.417-6.126-3.596-8.14zM16.89.026l6.58 12.31a10.907 10.907 0 0 0-3.876-.706c-6.081 0-11.009 4.928-11.009 11.008 0 3.08 1.264 5.86 3.3 7.86l-.191-.004a14.727 14.727 0 0 1-2.14-.22l-.155-.03c-1.287-.255-3.74-.973-5.625-2.105C1.815 26.96-.16 25.054.01 22.92l.046-.564c.168-1.872.57-3.583 4.503-9.203C8.367 7.718 15.022 1.683 16.565.313zm2.704 14.531a8.077 8.077 0 0 1 0 16.154 8.078 8.078 0 0 1 0-16.154z"/></g><g><path d="M78.923 11.797c-3.884-.003-7.1 3.203-7.314 7.24l-.006.123v.634c.155 4.061 3.395 7.294 7.32 7.293 4.002-.008 7.323-3.386 7.323-7.606-.002-4.26-3.323-7.676-7.323-7.684zm-24.154 0c-3.882-.003-7.1 3.203-7.316 7.24l-.005.123-.002.634c.158 4.061 3.4 7.294 7.323 7.293 4.004-.008 7.323-3.386 7.323-7.606 0-4.26-3.325-7.676-7.323-7.684zm48.265 0c-4.001.008-7.324 3.424-7.324 7.684 0 4.22 3.321 7.598 7.324 7.606 3.89 0 7.108-3.168 7.324-7.161l.005-.122v-.635c-.156-4.104-3.402-7.375-7.33-7.372zM71.48 0l.032 11.209c2.133-2.117 4.525-3.025 7.408-3.02 6.076 0 10.884 5.061 10.896 11.296-.012 6.15-4.822 11.209-10.896 11.21-3.524.002-6.528-1.485-8.39-4.024l-.215-.292c-.488-.667-.897-1.248-1.206-1.962-.893-2.06-1.068-3.822-1.081-4.5l-.001-.07V.072zM47.33 0l.03 11.209c2.133-2.117 4.523-3.025 7.409-3.02 6.074 0 10.882 5.061 10.895 11.296-.013 6.15-4.821 11.209-10.895 11.21-3.48.002-6.453-1.447-8.318-3.925l-.29-.391c-.488-.667-.896-1.248-1.205-1.962-.908-2.098-1.074-3.885-1.08-4.537V.072zm63.136.001l3.45.07v19.782c0 .62-.157 2.436-1.08 4.571-.35.817-.834 1.458-1.419 2.255-1.835 2.504-4.781 3.985-8.242 4.024h-.147c-6.071 0-10.877-5.061-10.888-11.212.01-6.237 4.815-11.3 10.888-11.3 2.837-.005 5.191.874 7.3 2.918l.105.103zm-9.65 37.754c-.265 0-.521.046-.762.134-.24.09-.46.214-.655.372a2.109 2.109 0 0 0-.495.567c-.133.22-.227.46-.272.722h4.34a2.16 2.16 0 0 0-.27-.702c-.136-.22-.3-.411-.492-.573a2.316 2.316 0 0 0-.645-.38 2.03 2.03 0 0 0-.75-.14zm-44.645 0a2.19 2.19 0 0 0-.762.134 2.33 2.33 0 0 0-.657.372 2.179 2.179 0 0 0-.495.567c-.134.22-.224.46-.274.722h4.343a2.148 2.148 0 0 0-.273-.702 2.314 2.314 0 0 0-1.135-.953 2.045 2.045 0 0 0-.747-.14zm-16.625 0c-.27 0-.524.046-.763.134-.242.09-.46.214-.656.372-.198.157-.36.347-.495.567a2.06 2.06 0 0 0-.274.722h4.343a2.148 2.148 0 0 0-.272-.702 2.412 2.412 0 0 0-.49-.573 2.4 2.4 0 0 0-.644-.38 2.05 2.05 0 0 0-.749-.14zm29.043 0c-.27 0-.524.046-.765.134a2.35 2.35 0 0 0-.655.372 2.163 2.163 0 0 0-.767 1.289h4.342a2.201 2.201 0 0 0-.274-.702 2.294 2.294 0 0 0-1.134-.953 2.03 2.03 0 0 0-.747-.14zm-19.374-.02c-.316 0-.61.055-.885.164-.274.11-.514.263-.722.46a2.088 2.088 0 0 0-.483.698 2.22 2.22 0 0 0-.175.88c0 .308.06.596.175.865.116.267.276.502.474.704.198.203.431.363.701.479.269.117.555.175.863.175.309 0 .6-.056.876-.165.274-.11.513-.26.715-.453.202-.191.363-.42.485-.683.119-.265.182-.552.182-.861 0-.309-.048-.593-.135-.853a1.745 1.745 0 0 0-.398-.66l-.059-.06c-.21-.22-.456-.39-.737-.51a2.19 2.19 0 0 0-.877-.18zm-19.778.01a2.192 2.192 0 0 0-1.567.655 2.361 2.361 0 0 0-.473.707 2.149 2.149 0 0 0-.175.865c0 .318.058.61.175.882a2.1 2.1 0 0 0 .485.702 2.336 2.336 0 0 0 1.606.623 2.254 2.254 0 0 0 1.621-.692c.22-.219.373-.459.46-.722a2.7 2.7 0 0 0 .128-.854 2.14 2.14 0 0 0-.664-1.547 2.224 2.224 0 0 0-.718-.454 2.365 2.365 0 0 0-.878-.165zm47.927.01a2.17 2.17 0 0 0-1.562.666 2.27 2.27 0 0 0-.635 1.581c0 .304.06.588.175.853.118.263.276.496.475.695a2.188 2.188 0 0 0 2.417.459c.266-.12.496-.283.687-.49.193-.206.344-.444.449-.716a2.41 2.41 0 0 0 .162-.873c0-.308-.057-.59-.162-.844a2.123 2.123 0 0 0-.5-.713 2.244 2.244 0 0 0-.689-.453 2.09 2.09 0 0 0-.817-.165zm-70.016 0c-.31 0-.6.06-.869.18-.265.12-.5.282-.694.486a2.264 2.264 0 0 0-.635 1.581 2.204 2.204 0 0 0 .65 1.548 2.177 2.177 0 0 0 1.548.64c.316 0 .607-.06.87-.181.265-.12.493-.283.688-.49.191-.206.34-.444.445-.716.107-.272.162-.563.162-.873 0-.308-.055-.59-.162-.844a2.257 2.257 0 0 0-1.19-1.166 2.063 2.063 0 0 0-.813-.165zm77.001 0c-.313 0-.602.055-.88.165a2.205 2.205 0 0 0-1.201 1.14c-.12.265-.18.552-.18.862 0 .308.04.593.13.854.085.262.238.503.456.723.214.22.46.39.737.51.28.12.574.182.885.182a2.326 2.326 0 0 0 1.608-.624c.206-.197.37-.43.486-.702.116-.273.175-.566.175-.882 0-.309-.06-.599-.175-.865a2.254 2.254 0 0 0-.477-.707 2.171 2.171 0 0 0-1.564-.656zm-23.948-.609l1.952 4.672 1.953-4.672h.824l-2.385 5.641h-.794l-2.376-5.641zm-24.323-.112v.73a2.302 2.302 0 0 0-.534.048 1.29 1.29 0 0 0-.521.233 1.123 1.123 0 0 0-.445.671 3.832 3.832 0 0 0-.104.91v3.161h-.766v-3.64c.007-.156.022-.295.046-.412l.03-.132a1.73 1.73 0 0 1 .05-.167c.027-.096.057-.183.092-.258.214-.413.508-.715.883-.909.38-.191.801-.27 1.269-.235zm71.218.009c.368.007.729.086 1.077.233.345.147.644.376.89.685.22.269.361.556.424.861.062.306.093.639.093.997v2.968h-.763v-2.976a4.22 4.22 0 0 0-.057-.703 1.55 1.55 0 0 0-.272-.641 1.518 1.518 0 0 0-.62-.516 2.076 2.076 0 0 0-.792-.176 2.126 2.126 0 0 0-.786.186c-.24.112-.443.28-.609.506-.145.2-.235.415-.274.641a4.406 4.406 0 0 0-.057.703v2.976h-.762V39.82c0-.358.033-.69.092-.997.063-.305.205-.592.422-.86.248-.31.548-.54.9-.693a2.76 2.76 0 0 1 1.094-.226zm-88.974.103l1.774 4.723 1.311-4.031h.63l1.301 4.031 1.807-4.723h.807l-2.15 5.641h-.875l-1.208-3.742-1.188 3.742h-.879l-2.136-5.641zm55-1.979v7.62h-.764v-7.62zm-59.415 0v.69h-.145c-.392 0-.698.096-.919.289-.218.193-.328.488-.328.888v.112h.884v.692h-.884v4.95h-.766v-4.95h-.876v-.692h.876a2.186 2.186 0 0 1 .12-.845c.094-.248.228-.455.402-.624.177-.169.39-.295.648-.382.252-.086.532-.128.843-.128zm2.104 0v1.98h1.308v.69H16.01v4.95h-.763v-4.95h-1.177v-.69h1.177v-1.98zm96.481 0v1.98h1.309v.69h-1.309v4.95h-.763v-4.95h-1.176v-.69h1.176v-1.98zm-17.858 1.834c.194.008.38.04.553.094.177.054.342.122.492.2.15.08.289.17.407.27a1.802 1.802 0 0 1 .545.696c.054.13.09.266.112.407.021.141.032.287.036.438l.004.352V42.8h-.764v-3.146c0-.207-.01-.427-.035-.66a1.32 1.32 0 0 0-.22-.62 1.345 1.345 0 0 0-.577-.468 1.873 1.873 0 0 0-.728-.14c-.241 0-.473.057-.7.17-.228.114-.412.27-.547.47-.125.178-.195.38-.213.603a8.93 8.93 0 0 0-.026.645v3.146h-.763v-3.146c0-.207-.007-.421-.026-.645a1.218 1.218 0 0 0-.212-.603 1.444 1.444 0 0 0-.547-.47 1.566 1.566 0 0 0-.702-.17 1.88 1.88 0 0 0-.729.14 1.305 1.305 0 0 0-.794 1.088 6.536 6.536 0 0 0-.037.66v3.146h-.762V39.58c0-.124 0-.245.002-.36l.003-.115c.002-.151.013-.297.033-.438a1.67 1.67 0 0 1 .352-.8 2.06 2.06 0 0 1 .306-.303c.122-.1.254-.19.41-.27a2.81 2.81 0 0 1 .487-.2c.175-.055.363-.086.555-.094a2.58 2.58 0 0 1 1.011.176c.344.13.647.368.908.712l.02.022a.61.61 0 0 1 .043.055l.035.053c.01.016.02.03.027.044l.082-.119.041-.055c.26-.344.562-.581.909-.712.343-.13.68-.188 1.01-.176zm-42.496-1.845v4.888c0 .42-.076.804-.229 1.155-.148.35-.356.652-.627.903a2.868 2.868 0 0 1-.944.587 3.146 3.146 0 0 1-1.17.214c-.405 0-.813-.079-1.216-.233-.407-.156-.768-.425-1.086-.81a4.223 4.223 0 0 1-.462-.82 2.7 2.7 0 0 1-.217-1.11c0-.418.081-.809.247-1.17a2.985 2.985 0 0 1 1.636-1.553 3.053 3.053 0 0 1 1.17-.206c.454.015.85.099 1.185.254.336.154.596.322.776.5l.051.057c.018.02.037.042.056.066l.056.074.012.02v-2.816zm-22.7 1.857c.42 0 .809.07 1.171.211.36.14.676.336.942.587.269.25.479.551.63.9.152.35.226.736.226 1.154v2.914h-.76v-.844a.147.147 0 0 1-.013.018l-.057.069a1.695 1.695 0 0 1-.107.12c-.185.185-.443.354-.778.508-.335.154-.727.239-1.183.253-.41.014-.8-.054-1.168-.2a3.078 3.078 0 0 1-.972-.619 3.068 3.068 0 0 1-.664-.937 2.793 2.793 0 0 1-.249-1.168c0-.413.072-.782.217-1.108.144-.326.3-.6.464-.819.319-.384.68-.653 1.084-.807a3.411 3.411 0 0 1 1.216-.232zm26.726.01c.448 0 .866.094 1.257.284.39.188.728.457 1.018.807a2.87 2.87 0 0 1 .513 1c.048.17.085.35.106.535.02.186.033.382.042.586h-5.116c.007.268.076.521.203.758s.29.442.487.618c.197.174.418.313.668.417.255.102.509.155.77.155.207 0 .416-.028.622-.084.206-.056.4-.134.577-.243a2.1 2.1 0 0 0 .484-.39c.148-.154.262-.327.345-.519h.794c-.1.282-.24.541-.424.782-.185.24-.403.448-.648.622-.24.175-.509.314-.798.413-.288.1-.58.15-.88.15a2.96 2.96 0 0 1-2.1-.856 2.99 2.99 0 0 1-.629-.937 2.838 2.838 0 0 1-.234-1.153 2.926 2.926 0 0 1 .852-2.086c.265-.264.576-.473.936-.628a2.882 2.882 0 0 1 1.155-.231zm12.412 0c.45 0 .865.094 1.255.284a2.984 2.984 0 0 1 1.336 1.301c.083.166.147.333.195.506.048.17.083.35.103.535.022.186.035.382.042.586h-5.105c.007.268.073.521.2.758s.29.442.484.618c.196.174.421.313.671.417.25.102.506.155.768.155.208 0 .414-.028.62-.084a2.238 2.238 0 0 0 1.062-.632c.143-.155.257-.328.342-.52h.793a2.71 2.71 0 0 1-.422.782c-.185.24-.403.448-.647.622a3.045 3.045 0 0 1-.799.413c-.289.1-.581.15-.876.15-.414 0-.798-.077-1.16-.228a2.86 2.86 0 0 1-.94-.628 3.02 3.02 0 0 1-.628-.937 2.866 2.866 0 0 1-.234-1.153 2.929 2.929 0 0 1 2.94-2.945zm-29.041 0c.446 0 .865.094 1.251.284.389.188.729.457 1.02.807a2.787 2.787 0 0 1 .515 1c.048.17.08.35.101.535.02.186.035.382.04.586h-5.104c.006.268.074.521.2.758.132.237.29.442.485.618.195.174.421.313.672.417.25.102.51.155.769.155.206 0 .412-.028.618-.084a2.238 2.238 0 0 0 1.064-.632c.145-.155.255-.328.34-.52h.793a2.636 2.636 0 0 1-.423.782 3.058 3.058 0 0 1-1.445 1.035c-.289.1-.58.15-.876.15a2.96 2.96 0 0 1-1.159-.228 2.772 2.772 0 0 1-.936-.628 3.005 3.005 0 0 1-.632-.937 2.873 2.873 0 0 1-.232-1.153c0-.411.076-.797.227-1.153.15-.358.359-.668.626-.933.263-.264.574-.473.93-.628a2.882 2.882 0 0 1 1.156-.231zm37.83 0c.39 0 .763.077 1.118.231a3.06 3.06 0 0 1 1.573 1.56c.158.351.236.721.236 1.111 0 .406-.076.79-.225 1.15-.153.36-.36.677-.625.947a2.962 2.962 0 0 1-.935.648 2.887 2.887 0 0 1-2.278.015 2.972 2.972 0 0 1-.942-.623 2.972 2.972 0 0 1-.648-.925 2.94 2.94 0 0 1-.004-2.297c.157-.36.367-.674.63-.942.265-.267.58-.48.94-.64a2.87 2.87 0 0 1 1.16-.235zm-70.013 0c.393 0 .765.077 1.12.231.356.155.668.366.933.634.27.266.485.576.643.927.159.35.236.72.236 1.11a2.983 2.983 0 0 1-.85 2.097c-.267.273-.578.488-.936.648-.361.162-.74.244-1.146.244-.4 0-.778-.077-1.135-.228a2.949 2.949 0 0 1-.946-.624 2.911 2.911 0 0 1-.646-.925 2.757 2.757 0 0 1-.24-1.14A2.967 2.967 0 0 1 6.19 37.26a2.89 2.89 0 0 1 1.163-.236zm-5.377 0c.211 0 .414.04.603.123a1.547 1.547 0 0 1 .828.814 1.4 1.4 0 0 1 .125.587h-.763c0-.247-.083-.441-.252-.582a.942.942 0 0 0-.624-.211.756.756 0 0 0-.558.227.75.75 0 0 0-.226.556c0 .157.026.286.083.385.053.1.129.184.222.254.09.067.197.124.319.168.12.045.243.09.366.129.212.07.414.145.603.227.19.082.355.188.501.314.144.126.26.28.346.458.084.18.128.396.128.649 0 .268-.047.512-.14.732a1.67 1.67 0 0 1-.957.932 2.063 2.063 0 0 1-.728.129 1.61 1.61 0 0 1-.68-.145 1.762 1.762 0 0 1-.924-.963 1.572 1.572 0 0 1-.109-.685h.766c-.01.145.015.28.064.408.052.127.125.24.217.338a1.004 1.004 0 0 0 .736.315c.276 0 .51-.087.703-.258a.868.868 0 0 0 .287-.68.956.956 0 0 0-.09-.432.945.945 0 0 0-.248-.299 1.524 1.524 0 0 0-.35-.205c-.1-.042-.199-.08-.301-.113l-.104-.032a9.575 9.575 0 0 1-.539-.184 1.356 1.356 0 0 1-.48-.309 1.348 1.348 0 0 1-.342-.49 1.567 1.567 0 0 1 .366-1.716 1.698 1.698 0 0 1 1.152-.442zm98.832 0c.447 0 .864.094 1.252.284.389.188.727.457 1.018.807a2.769 2.769 0 0 1 .515 1c.048.17.083.35.103.535.022.186.034.382.043.586h-5.106c.005.268.073.521.202.758.127.237.288.442.482.618.195.174.42.313.672.417.252.102.506.155.768.155.209 0 .411-.028.617-.084.206-.056.401-.134.58-.243.178-.104.339-.234.486-.39.141-.154.256-.327.336-.519h.797a2.675 2.675 0 0 1-.425.782 3.037 3.037 0 0 1-1.443 1.035 2.7 2.7 0 0 1-.877.15c-.412 0-.801-.077-1.161-.228a2.81 2.81 0 0 1-.937-.628 3.029 3.029 0 0 1-.63-.937 2.873 2.873 0 0 1-.231-1.153c0-.411.075-.797.228-1.153.15-.358.357-.668.622-.933a2.98 2.98 0 0 1 .933-.628 2.877 2.877 0 0 1 1.156-.231zm-16.458 0c.403 0 .81.077 1.213.231.408.155.769.426 1.085.808.166.22.319.494.464.82.145.327.217.696.217 1.108 0 .419-.083.809-.248 1.169a3.003 3.003 0 0 1-1.634 1.555c-.37.148-.758.215-1.172.202-.453-.016-.847-.098-1.18-.253-.333-.155-.595-.324-.78-.51a1.97 1.97 0 0 1-.07-.076l-.037-.043a.45.45 0 0 1-.066-.088v2.813h-.777l.012-4.882c0-.42.075-.804.228-1.154.149-.351.36-.651.629-.902.266-.25.585-.446.942-.587.36-.14.753-.211 1.174-.211z"/></g></g></svg>